<svg version="1.0" xmlns="http://www.w3.org/2000/svg" width="1024.000000ptpx" height="1024.000000ptpx" viewBox="0 0 1024.000000 1024.000000" preserveAspectRatio="xMidYMid meet" transform="rotate(0) scale(1, 1)">

<g transform="translate(0.000000,1024.000000) scale(0.100000,-0.100000)" fill="#cccccc" stroke="none">
<path d="M4265 8965 c-158 -30 -304 -91 -441 -186 -76 -53 -207 -182 -239&#xA;-236 -15 -26 -26 -32 -68 -37 -79 -11 -205 -54 -301 -104 -289 -152 -491 -440&#xA;-541 -769 -8 -54 -15 -101 -15 -104 0 -3 -24 -22 -53 -42 -76 -53 -196 -179&#xA;-255 -269 -129 -199 -187 -445 -162 -694 13 -131 30 -201 76 -316 27 -66 33&#xA;-91 25 -105 -27 -51 -54 -195 -59 -315 -9 -245 44 -446 169 -630 231 -339 725&#xA;-551 1188 -509 121 11 245 37 310 64 31 13 36 12 108 -26 87 -46 143 -62 245&#xA;-72 40 -4 94 -16 121 -27 60 -26 136 -108 177 -192 122 -247 48 -755 -144&#xA;-998 -65 -82 -155 -150 -281 -213 -122 -61 -247 -99 -470 -145 -176 -36 -321&#xA;-83 -402 -131 -38 -22 -119 -95 -233 -210 -96 -97 -196 -193 -222 -213 -78&#xA;-61 -61 -99 36 -77 107 24 176 64 346 204 160 132 232 157 500 177 160 12 233&#xA;21 295 36 l30 7 -20 -24 c-11 -13 -43 -57 -70 -98 -108 -162 -195 -233 -407&#xA;-334 -229 -109 -343 -201 -408 -331 -66 -132 -22 -157 87 -50 144 140 224 184&#xA;433 239 74 19 136 33 138 30 8 -7 -40 -140 -71 -200 -20 -37 -64 -92 -115&#xA;-143 -91 -90 -102 -118 -43 -115 54 2 176 69 245 133 69 65 108 130 156 260&#xA;63 172 148 292 326 458 98 91 401 341 414 342 11 0 -8 -157 -25 -216 -24 -84&#xA;-63 -154 -152 -279 -178 -249 -233 -385 -233 -579 0 -121 -19 -224 -57 -313&#xA;-19 -45 -33 -90 -31 -100 12 -57 133 46 187 160 17 35 46 128 66 207 43 171&#xA;75 240 158 340 61 73 62 74 65 45 10 -95 47 -207 103 -313 32 -62 66 -141 74&#xA;-175 27 -116 14 -237 -40 -375 -29 -73 -32 -117 -8 -126 51 -20 148 156 195&#xA;353 26 111 20 180 -34 360 -36 120 -41 149 -42 241 -1 98 1 110 30 170 17 36&#xA;51 95 77 132 25 37 62 97 82 133 20 36 38 65 41 65 2 0 13 -19 25 -42 12 -24&#xA;48 -84 80 -133 91 -141 112 -195 117 -295 4 -88 5 -83 -69 -350 -13 -48 -21&#xA;-109 -22 -170 -1 -83 3 -107 31 -187 56 -164 129 -283 173 -283 32 0 32 41 1&#xA;121 -42 107 -56 173 -57 269 0 109 15 160 87 296 56 108 98 232 98 298 l1 31&#xA;58 -62 c77 -81 121 -173 166 -348 20 -77 53 -173 72 -214 44 -88 122 -174 155&#xA;-169 34 5 33 31 -7 129 -38 93 -54 194 -55 330 0 152 -72 326 -217 529 -110&#xA;154 -136 198 -162 275 -19 60 -47 232 -38 241 12 12 312 -231 461 -376 151&#xA;-146 236 -272 301 -445 44 -115 76 -168 145 -238 47 -46 89 -77 135 -99 74&#xA;-34 137 -42 142 -18 2 8 -32 51 -74 95 -50 51 -91 106 -114 150 -40 78 -72&#xA;167 -67 189 4 20 272 -55 359 -100 77 -41 183 -125 230 -183 24 -31 40 -41 61&#xA;-41 25 0 28 3 28 33 0 80 -103 216 -227 299 -38 25 -136 79 -219 120 -178 88&#xA;-221 116 -295 194 -76 82 -191 254 -168 254 5 0 44 -9 87 -20 46 -11 146 -23&#xA;247 -30 260 -16 302 -32 488 -187 145 -121 250 -176 339 -177 57 -1 63 1 66&#xA;20 2 16 -12 32 -60 67 -35 25 -124 109 -197 186 -73 78 -155 157 -181 176&#xA;-113 83 -238 128 -529 190 -206 45 -318 82 -446 148 -81 42 -117 69 -186 138&#xA;-75 74 -94 99 -138 190 -87 179 -130 395 -118 594 12 181 52 295 140 391 61&#xA;67 110 90 223 103 116 14 175 32 248 76 l58 35 77 -25 c129 -43 241 -59 416&#xA;-58 179 0 296 19 452 74 303 106 558 323 673 571 102 221 122 504 52 738 -14&#xA;47 -25 94 -25 105 1 11 17 61 36 110 54 137 70 228 70 390 0 165 -16 255 -74&#xA;398 -69 174 -211 361 -344 453 l-52 35 -12 85 c-7 47 -23 123 -37 170 -104&#xA;360 -436 662 -799 725 -53 9 -64 15 -80 42 -35 58 -179 198 -261 253 -147 98&#xA;-280 148 -465 175 -98 14 -258 6 -343 -17 -212 -57 -349 -199 -376 -389 -6&#xA;-44 -10 -796 -10 -2021 l0 -1952 -35 -31 c-20 -17 -40 -31 -46 -31 -6 0 -25&#xA;11 -44 25 l-33 26 -5 1997 c-4 1816 -6 2002 -21 2048 -51 160 -166 266 -351&#xA;324 -93 29 -286 36 -400 15z m316 -291 c39 -12 67 -29 100 -63 80 -80 79 -66&#xA;78 -750 0 -328 -4 -618 -8 -645 -9 -50 -30 -76 -63 -76 -23 0 -127 87 -260&#xA;219 l-108 106 0 290 0 290 36 29 c64 50 83 141 45 214 -23 46 -46 67 -94 87&#xA;-110 46 -233 -27 -245 -145 -6 -68 3 -94 47 -143 l38 -42 6 -178 c3 -98 3&#xA;-222 0 -277 l-6 -98 -104 -7 -105 -8 -84 84 c-81 80 -83 84 -78 120 17 104&#xA;-71 199 -183 199 -121 -1 -205 -112 -174 -230 22 -81 88 -130 176 -130 44 0&#xA;51 -4 158 -100 l112 -100 175 0 175 0 272 -272 273 -273 0 -288 0 -288 -87 60&#xA;c-131 88 -153 107 -340 293 l-172 171 -238 -7 -238 -7 -128 129 -129 129 7 45&#xA;c12 76 -27 146 -100 179 -52 24 -106 24 -153 0 -46 -23 -67 -46 -87 -94 -20&#xA;-48 -19 -93 4 -143 28 -62 80 -97 152 -102 l59 -4 153 -149 152 -149 241 0&#xA;241 0 74 -78 c41 -43 88 -103 104 -132 22 -41 52 -71 115 -119 151 -116 272&#xA;-251 341 -381 23 -42 24 -57 27 -242 3 -139 0 -198 -8 -198 -6 0 -39 26 -73&#xA;58 -34 32 -82 72 -107 89 -53 36 -170 95 -220 112 -25 8 -100 75 -260 236&#xA;l-225 225 -235 0 -235 0 -97 97 -97 96 6 47 c7 64 -10 112 -57 154 -111 100&#xA;-280 27 -280 -121 0 -62 17 -100 59 -136 35 -29 94 -51 121 -44 13 3 49 -27&#xA;131 -109 104 -105 112 -115 98 -131 -111 -132 -154 -173 -180 -173 -39 0 -80&#xA;-17 -113 -48 -59 -55 -72 -137 -33 -212 31 -61 65 -83 136 -88 52 -4 67 -1&#xA;106 22 62 37 88 88 83 171 l-3 62 119 126 119 127 136 0 136 0 135 -135 135&#xA;-135 -43 0 c-41 0 -48 -5 -146 -98 -91 -87 -107 -98 -133 -95 -116 17 -228&#xA;-101 -208 -219 9 -54 75 -122 132 -137 49 -13 113 -2 152 26 34 25 71 98 71&#xA;141 0 28 13 48 83 123 73 79 86 89 117 89 39 0 137 -43 207 -91 76 -53 190&#xA;-167 239 -240 43 -65 129 -237 122 -244 -15 -14 -104 -27 -214 -32 -106 -5&#xA;-146 -2 -203 12 -80 19 -168 68 -225 124 l-39 39 -58 -38 c-63 -41 -187 -84&#xA;-289 -100 -205 -32 -481 17 -679 120 -170 89 -268 186 -347 345 -100 202 -100&#xA;416 2 633 l44 94 -40 66 c-51 84 -94 198 -110 289 -18 100 -8 278 20 368 63&#xA;201 204 367 393 466 l66 33 -1 116 c0 134 17 219 66 323 103 223 328 388 559&#xA;411 31 3 82 9 113 12 l56 6 27 61 c108 239 365 393 662 396 43 1 99 -6 130&#xA;-15z m1366 0 c225 -46 404 -176 495 -358 22 -45 41 -82 42 -83 2 -2 49 -8 105&#xA;-13 204 -21 353 -91 481 -227 41 -43 90 -104 108 -135 70 -119 110 -289 98&#xA;-423 l-6 -71 47 -23 c209 -101 369 -298 429 -526 25 -97 23 -263 -5 -370 -24&#xA;-89 -79 -212 -118 -264 l-26 -34 41 -81 c66 -133 77 -181 77 -341 -1 -127 -3&#xA;-148 -29 -220 -69 -200 -193 -337 -396 -440 -201 -101 -469 -146 -667 -111&#xA;-106 18 -234 62 -301 104 l-48 29 -44 -40 c-52 -46 -159 -100 -245 -122 -96&#xA;-24 -271 -18 -397 16 l-37 9 19 54 c59 171 187 372 317 497 165 159 359 249&#xA;535 249 l77 0 113 -109 114 -109 126 -4 c122 -3 128 -4 155 -30 41 -40 97 -60&#xA;141 -52 55 10 108 40 133 75 23 33 36 110 25 153 -9 36 -65 96 -103 112 -70&#xA;30 -160 5 -203 -56 -21 -30 -22 -30 -112 -30 l-92 0 -82 80 c-47 46 -101 89&#xA;-128 101 l-46 20 0 149 0 148 48 41 47 41 208 0 207 0 41 -30 c56 -40 114 -48&#xA;171 -22 133 58 146 236 22 308 -40 23 -53 26 -105 21 -64 -6 -121 -39 -141&#xA;-82 -9 -19 -20 -23 -85 -29 -42 -3 -145 -6 -230 -6 -177 0 -182 -2 -259 -82&#xA;-87 -90 -84 -80 -84 -279 l0 -176 -102 -6 c-250 -14 -464 -117 -684 -329 -55&#xA;-54 -104 -98 -107 -98 -4 0 -7 92 -7 205 0 178 3 211 19 256 71 185 265 385&#xA;478 493 29 14 61 26 71 26 11 0 109 94 248 240 l229 240 156 0 c154 0 156 0&#xA;180 -26 30 -32 81 -54 125 -54 157 0 236 211 116 312 -88 74 -217 54 -267 -42&#xA;l-15 -28 -189 -4 -190 -3 -32 -30 c-17 -16 -121 -124 -230 -239 l-199 -210&#xA;-97 -32 c-122 -40 -211 -89 -320 -177 l-84 -67 3 227 c3 225 3 229 30 279 41&#xA;78 68 104 185 185 107 74 325 279 365 344 15 25 18 51 18 148 l0 117 203 0&#xA;204 0 31 -38 c77 -97 228 -68 283 53 23 51 23 89 0 141 -50 110 -186 136 -273&#xA;53 l-41 -39 -204 0 -203 0 0 125 0 124 40 38 c93 89 70 232 -44 284 -50 23&#xA;-95 24 -143 4 -48 -20 -71 -41 -94 -87 -36 -71 -19 -161 40 -210 l31 -27 0&#xA;-301 0 -302 -62 -65 c-35 -36 -89 -85 -122 -109 -58 -44 -231 -154 -241 -154&#xA;-3 0 -4 312 -3 693 l3 692 22 41 c29 55 96 111 153 129 61 19 194 18 287 -1z"/>
</g>
</svg>